 <svg  version="1.0" xmlns="http://www.w3.org/2000/svg"  width="200.000000pt" height="255.000000pt" viewBox="0 0 200.000000 255.000000"  preserveAspectRatio="xMidYMid meet">  <g transform="translate(0.000000,255.000000) scale(0.050000,-0.050000)" fill="#ffffff" stroke="none"> <path d="M1850 5029 c-22 -5 -87 -19 -145 -31 -480 -97 -927 -504 -1095 -998 -389 -1144 566 -2293 1724 -2074 1582 301 1699 2574 156 3054 -135 42 -537 73 -640 49z m612 -204 c1282 -464 1287 -2208 8 -2617 -1170 -375 -2185 860 -1614 1962 283 545 1047 857 1606 655z"/> <path d="M2805 4191 c-85 -49 -625 -467 -625 -485 0 -5 23 -39 52 -77 l52 -68 -61 -131 c-139 -297 -494 -648 -611 -604 -47 18 -314 438 -308 483 6 39 348 190 490 217 222 41 250 52 302 111 61 68 39 73 -160 33 -348 -69 -615 -158 -777 -260 l-75 -48 232 -350 231 -349 62 42 c350 243 556 479 711 815 8 17 148 103 312 192 364 198 479 296 461 392 -27 136 -142 171 -288 87z m124 -70 c6 -10 2 -24 -10 -31 -29 -19 -84 5 -69 30 16 25 64 26 79 1z m-229 -173 c0 -15 -18 -28 -40 -28 -38 0 -54 39 -28 65 19 20 68 -7 68 -37z m-240 -158 c0 -17 -18 -30 -40 -30 -22 0 -40 13 -40 30 0 17 18 30 40 30 22 0 40 -13 40 -30z"/> <path d="M290 1576 c-247 -86 -243 -277 13 -549 167 -178 177 -193 177 -277 0 -143 -133 -197 -275 -110 -87 53 -154 -54 -80 -128 139 -138 448 -99 538 68 86 161 48 270 -173 500 -252 262 -216 405 83 331 53 -13 67 -8 87 29 57 106 -192 198 -370 136z"/> <path d="M980 1259 c-274 -115 -298 -655 -36 -791 136 -71 376 -23 376 74 0 56 -46 99 -82 76 -146 -92 -258 6 -258 228 0 242 77 306 292 243 68 -20 80 68 19 129 -55 55 -224 77 -311 41z"/> <path d="M1628 1251 c-34 -14 -86 -22 -115 -16 -99 19 -104 -1 -93 -402 11 -411 10 -407 115 -381 l75 18 6 295 c6 327 12 341 147 330 55 -4 68 3 86 52 38 105 -85 163 -221 104z"/> <path d="M2059 1262 c-143 -46 -166 -84 -102 -163 37 -46 39 -46 149 -15 129 37 134 35 134 -67 0 -57 -7 -73 -28 -65 -53 20 -200 -36 -266 -102 -191 -191 58 -516 297 -388 30 16 47 16 63 0 24 -24 93 -29 142 -10 35 14 44 98 12 118 -12 7 -20 127 -20 291 0 277 0 279 -57 342 -61 68 -212 96 -324 59z m183 -467 c-1 -8 -2 -51 -2 -94 0 -77 -85 -140 -145 -107 -29 16 -15 140 20 170 56 49 130 67 127 31z"/> <path d="M2810 1255 c-22 -12 -80 -23 -128 -24 l-88 -1 4 -527 c6 -613 1 -587 110 -579 l82 6 -1 165 c0 154 2 164 38 153 242 -77 403 97 403 436 0 304 -212 493 -420 371z m181 -163 c137 -100 -22 -590 -162 -502 -59 37 -46 469 15 503 60 34 100 33 147 -1z"/> <path d="M3310 1240 c-11 -18 142 -522 199 -651 53 -121 -45 -309 -162 -309 -78 0 -92 -51 -30 -107 159 -144 324 33 469 507 167 540 168 567 41 576 -95 7 -85 23 -138 -226 -59 -278 -55 -276 -118 -48 -31 115 -70 224 -87 243 -32 38 -153 48 -174 15z"/> </g> </svg> 